ffmpeg version 3.4.8-0ubuntu0.2 Copyright (c) 2000-2020 the FFmpeg developers
  built with gcc 7 (Ubuntu 7.5.0-3ubuntu1~18.04)
  configuration: --prefix=/usr --extra-version=0ubuntu0.2 --toolchain=hardened --libdir=/usr/lib/x86_64-linux-gnu --incdir=/usr/include/x86_64-linux-gnu --enable-gpl --disable-stripping --enable-avresample --enable-avisynth --enable-gnutls --enable-ladspa --enable-libass --enable-libbluray --enable-libbs2b --enable-libcaca --enable-libcdio --enable-libflite --enable-libfontconfig --enable-libfreetype --enable-libfribidi --enable-libgme --enable-libgsm --enable-libmp3lame --enable-libmysofa --enable-libopenjpeg --enable-libopenmpt --enable-libopus --enable-libpulse --enable-librubberband --enable-librsvg --enable-libshine --enable-libsnappy --enable-libsoxr --enable-libspeex --enable-libssh --enable-libtheora --enable-libtwolame --enable-libvorbis --enable-libvpx --enable-libwavpack --enable-libwebp --enable-libx265 --enable-libxml2 --enable-libxvid --enable-libzmq --enable-libzvbi --enable-omx --enable-openal --enable-opengl --enable-sdl2 --enable-libdc1394 --enable-libdrm --enable-libiec61883 --enable-chromaprint --enable-frei0r --enable-libopencv --enable-libx264 --enable-shared
  libavutil      55. 78.100 / 55. 78.100
  libavcodec     57.107.100 / 57.107.100
  libavformat    57. 83.100 / 57. 83.100
  libavdevice    57. 10.100 / 57. 10.100
  libavfilter     6.107.100 /  6.107.100
  libavresample   3.  7.  0 /  3.  7.  0
  libswscale      4.  8.100 /  4.  8.100
  libswresample   2.  9.100 /  2.  9.100
  libpostproc    54.  7.100 / 54.  7.100
[rawvideo @ 0x55f2ff186a20] Estimating duration from bitrate, this may be inaccurate
Input #0, rawvideo, from '../../SVC-Encoder-20220109T061506Z-001/SVC-Encoder/Dataset/RollerCoaster/6f_2x2/tile_yuv/f5_t3_480x480.yuv':
  Duration: 00:00:10.00, start: 0.000000, bitrate: 82944 kb/s
    Stream #0:0: Video: rawvideo (I420 / 0x30323449), yuv420p, 480x480, 82944 kb/s, 30 tbr, 30 tbn, 30 tbc
Stream mapping:
  Stream #0:0 -> #0:0 (rawvideo (native) -> h264 (libx264))
Press [q] to stop, [?] for help
[libx264 @ 0x55f2ff193c60] using cpu capabilities: MMX2 SSE2Fast LZCNT SSSE3 SSE4.2 AVX
[libx264 @ 0x55f2ff193c60] profile High, level 3.0
Output #0, rawvideo, to 'RollerCoaster_f5_t3_480x480_x264_QP_24.h264':
  Metadata:
    encoder         : Lavf57.83.100
    Stream #0:0: Video: h264 (libx264), yuv420p, 480x480, q=-1--1, 30 fps, 30 tbn, 30 tbc
    Metadata:
      encoder         : Lavc57.107.100 libx264
    Side data:
      cpb: bitrate max/min/avg: 0/0/0 buffer size: 0 vbv_delay: -1
frame=   92 fps=0.0 q=30.0 PSNR=Y:nan U:nan V:nan *:nan size=     164kB time=00:00:01.63 bitrate= 822.9kbits/s speed=3.22x    frame=  148 fps=146 q=30.0 PSNR=Y:nan U:nan V:nan *:nan size=     256kB time=00:00:03.50 bitrate= 599.2kbits/s speed=3.45x    frame=  204 fps=134 q=30.0 PSNR=Y:nan U:nan V:nan *:nan size=     256kB time=00:00:05.36 bitrate= 390.8kbits/s speed=3.53x    frame=  264 fps=130 q=30.0 PSNR=Y:nan U:nan V:nan *:nan size=     512kB time=00:00:07.36 bitrate= 569.4kbits/s speed=3.63x    frame=  300 fps=113 q=30.0 LPSNR=Y:inf U:inf V:inf *:inf size=     816kB time=00:00:09.93 bitrate= 672.6kbits/s speed=3.75x    
video:816kB audio:0kB subtitle:0kB other streams:0kB global headers:0kB muxing overhead: 0.000000%
[libx264 @ 0x55f2ff193c60] frame I:2     Avg QP:23.27  size: 31754  PSNR Mean Y:41.74 U:46.45 V:48.56 Avg:42.94 Global:42.74
[libx264 @ 0x55f2ff193c60] frame P:76    Avg QP:24.97  size:  7212  PSNR Mean Y:39.93 U:46.29 V:47.93 Avg:41.28 Global:41.23
[libx264 @ 0x55f2ff193c60] frame B:222   Avg QP:29.48  size:  1007  PSNR Mean Y:39.23 U:46.02 V:47.74 Avg:40.63 Global:40.61
[libx264 @ 0x55f2ff193c60] consecutive B-frames:  1.3%  0.0%  0.0% 98.7%
[libx264 @ 0x55f2ff193c60] mb I  I16..4:  3.6% 83.0% 13.4%
[libx264 @ 0x55f2ff193c60] mb P  I16..4:  0.9%  3.4%  0.9%  P16..4: 37.1% 27.2% 17.3%  0.0%  0.0%    skip:13.2%
[libx264 @ 0x55f2ff193c60] mb B  I16..4:  0.0%  0.1%  0.0%  B16..8: 38.2%  6.8%  1.0%  direct: 0.6%  skip:53.2%  L0:37.0% L1:55.9% BI: 7.1%
[libx264 @ 0x55f2ff193c60] 8x8 transform intra:70.7% inter:64.0%
[libx264 @ 0x55f2ff193c60] coded y,uvDC,uvAC intra: 73.5% 80.5% 37.6% inter: 14.7% 9.3% 0.1%
[libx264 @ 0x55f2ff193c60] i16 v,h,dc,p:  3% 62%  8% 27%
[libx264 @ 0x55f2ff193c60] i8 v,h,dc,ddl,ddr,vr,hd,vl,hu:  7% 28% 13%  3% 11% 18%  9%  3%  8%
[libx264 @ 0x55f2ff193c60] i4 v,h,dc,ddl,ddr,vr,hd,vl,hu: 11% 26% 17%  3% 11% 19%  6%  2%  5%
[libx264 @ 0x55f2ff193c60] i8c dc,h,v,p: 35% 39% 11% 16%
[libx264 @ 0x55f2ff193c60] Weighted P-Frames: Y:0.0% UV:0.0%
[libx264 @ 0x55f2ff193c60] ref P L0: 61.6% 19.2% 15.3%  3.9%
[libx264 @ 0x55f2ff193c60] ref B L0: 92.5%  6.7%  0.8%
[libx264 @ 0x55f2ff193c60] ref B L1: 94.0%  6.0%
[libx264 @ 0x55f2ff193c60] PSNR Mean Y:39.427 U:46.088 V:47.796 Avg:40.810 Global:40.768 kb/s:668.09
